<svg version="1.1" viewBox="0.0 0.0 960.0 720.0" fill="none" stroke="none" stroke-linecap="square" stroke-miterlimit="10" xmlns:xlink="http://www.w3.org/1999/xlink" xmlns="http://www.w3.org/2000/svg"><clipPath id="p.0"><path d="m0 0l960.0 0l0 720.0l-960.0 0l0 -720.0z" clip-rule="nonzero"/></clipPath><g clip-path="url(#p.0)"><path fill="#000000" fill-opacity="0.0" d="m0 0l960.0 0l0 720.0l-960.0 0z" fill-rule="evenodd"/><path fill="#f6b26b" fill-opacity="0.5" d="m231.12372 255.84729l497.7323 0l0 182.77164l-497.7323 0z" fill-rule="evenodd"/><path fill="#ffffff" d="m247.81122 421.58832l0 -1.1875l-5.984375 0l0 1.1875l5.984375 0zm6.6953125 -6.109375l-1.453125 0l0 2.046875l-2.21875 0l0 1.109375l2.21875 0l0 4.59375q0 0.78125 0.203125 1.34375q0.21875 0.546875 0.578125 0.890625q0.359375 0.34375 0.84375 0.515625q0.484375 0.15625 1.046875 0.15625q0.34375 0 0.671875 -0.03125q0.34375 -0.03125 0.65625 -0.09375q0.296875 -0.0625 0.546875 -0.140625q0.265625 -0.078125 0.453125 -0.1875l-0.203125 -1.03125q-0.140625 0.03125 -0.34375 0.078125q-0.203125 0.046875 -0.4375 0.078125q-0.25 0.046875 -0.5 0.078125q-0.25 0.015625 -0.484375 0.015625q-0.3125 0 -0.609375 -0.078125q-0.28125 -0.078125 -0.5 -0.265625q-0.21875 -0.1875 -0.34375 -0.5q-0.125 -0.328125 -0.125 -0.828125l0 -4.59375l3.21875 0l0 -1.109375l-3.21875 0l0 -2.046875zm5.7734375 6.1875l0 0.171875q0 0.921875 0.265625 1.703125q0.265625 0.78125 0.765625 1.359375q0.5 0.578125 1.203125 0.90625q0.71875 0.328125 1.625 0.328125q0.890625 0 1.59375 -0.328125q0.71875 -0.328125 1.21875 -0.90625q0.484375 -0.578125 0.75 -1.359375q0.265625 -0.78125 0.265625 -1.703125l0 -0.171875q0 -0.90625 -0.265625 -1.6875q-0.265625 -0.796875 -0.75 -1.375q-0.5 -0.578125 -1.21875 -0.90625q-0.71875 -0.328125 -1.609375 -0.328125q-0.890625 0 -1.609375 0.328125q-0.703125 0.328125 -1.203125 0.90625q-0.5 0.578125 -0.765625 1.375q-0.265625 0.78125 -0.265625 1.6875zm1.453125 0.171875l0 -0.171875q0 -0.609375 0.140625 -1.171875q0.15625 -0.578125 0.453125 -1.0q0.296875 -0.4375 0.734375 -0.6875q0.453125 -0.25 1.0625 -0.25q0.59375 0 1.046875 0.25q0.453125 0.25 0.75 0.6875q0.296875 0.421875 0.453125 1.0q0.15625 0.5625 0.15625 1.171875l0 0.171875q0 0.625 -0.15625 1.203125q-0.140625 0.5625 -0.4375 0.984375q-0.3125 0.4375 -0.765625 0.6875q-0.4375 0.25 -1.03125 0.25q-0.609375 0 -1.0625 -0.25q-0.453125 -0.25 -0.75 -0.6875q-0.296875 -0.421875 -0.453125 -0.984375q-0.140625 -0.578125 -0.140625 -1.203125zm8.1484375 -0.171875l0 0.171875q0 0.921875 0.265625 1.703125q0.265625 0.78125 0.765625 1.359375q0.5 0.578125 1.203125 0.90625q0.71875 0.328125 1.625 0.328125q0.890625 0 1.59375 -0.328125q0.71875 -0.328125 1.21875 -0.90625q0.484375 -0.578125 0.75 -1.359375q0.265625 -0.78125 0.265625 -1.703125l0 -0.171875q0 -0.90625 -0.265625 -1.6875q-0.265625 -0.796875 -0.75 -1.375q-0.5 -0.578125 -1.21875 -0.90625q-0.71875 -0.328125 -1.609375 -0.328125q-0.890625 0 -1.609375 0.328125q-0.703125 0.328125 -1.203125 0.90625q-0.5 0.578125 -0.765625 1.375q-0.265625 0.78125 -0.265625 1.6875zm1.453125 0.171875l0 -0.171875q0 -0.609375 0.140625 -1.171875q0.15625 -0.578125 0.453125 -1.0q0.296875 -0.4375 0.734375 -0.6875q0.453125 -0.25 1.0625 -0.25q0.59375 0 1.046875 0.25q0.453125 0.25 0.75 0.6875q0.296875 0.421875 0.453125 1.0q0.15625 0.5625 0.15625 1.171875l0 0.171875q0 0.625 -0.15625 1.203125q-0.140625 0.5625 -0.4375 0.984375q-0.3125 0.4375 -0.765625 0.6875q-0.4375 0.25 -1.03125 0.25q-0.609375 0 -1.0625 -0.25q-0.453125 -0.25 -0.75 -0.6875q-0.296875 -0.421875 -0.453125 -0.984375q-0.140625 -0.578125 -0.140625 -1.203125zm8.7890625 -7.859375l0 1.25l2.875 0l0 9.5l-2.875 0l0 1.25l7.078125 0l0 -1.25l-2.765625 0l0 -10.75l-4.3125 0zm13.1015625 12.15625q1.234375 0 2.078125 -0.5q0.84375 -0.5 1.265625 -1.140625l-0.890625 -0.6875q-0.390625 0.515625 -1.0 0.828125q-0.59375 0.3125 -1.375 0.3125q-0.578125 0 -1.0625 -0.21875q-0.484375 -0.21875 -0.828125 -0.59375q-0.34375 -0.359375 -0.53125 -0.828125q-0.1875 -0.46875 -0.25 -1.09375l0 -0.046875l6.046875 0l0 -0.65625q0 -0.875 -0.234375 -1.625q-0.21875 -0.765625 -0.671875 -1.328125q-0.453125 -0.5625 -1.140625 -0.875q-0.671875 -0.3125 -1.59375 -0.3125q-0.71875 0 -1.421875 0.296875q-0.6875 0.296875 -1.21875 0.84375q-0.546875 0.5625 -0.875 1.375q-0.328125 0.8125 -0.328125 1.828125l0 0.328125q0 0.890625 0.296875 1.640625q0.296875 0.75 0.828125 1.296875q0.53125 0.546875 1.265625 0.859375q0.75 0.296875 1.640625 0.296875zm-0.1875 -7.578125q0.5625 0 0.953125 0.203125q0.40625 0.203125 0.671875 0.53125q0.265625 0.328125 0.40625 0.78125q0.15625 0.4375 0.15625 0.828125l0 0.078125l-4.546875 0q0.09375 -0.59375 0.296875 -1.03125q0.21875 -0.453125 0.53125 -0.765625q0.3125 -0.3125 0.703125 -0.46875q0.390625 -0.15625 0.828125 -0.15625zm9.5546875 2.09375l-2.234375 -3.125l-1.671875 0l3.140625 4.171875l-3.234375 4.28125l1.6875 0l2.34375 -3.21875l2.328125 3.21875l1.671875 0l-3.234375 -4.28125l3.15625 -4.171875l-1.703125 0l-2.25 3.125zm9.8359375 5.484375q1.234375 0 2.078125 -0.5q0.84375 -0.5 1.265625 -1.140625l-0.890625 -0.6875q-0.390625 0.515625 -1.0 0.828125q-0.59375 0.3125 -1.375 0.3125q-0.578125 0 -1.0625 -0.21875q-0.484375 -0.21875 -0.828125 -0.59375q-0.34375 -0.359375 -0.53125 -0.828125q-0.1875 -0.46875 -0.25 -1.09375l0 -0.046875l6.046875 0l0 -0.65625q0 -0.875 -0.234375 -1.625q-0.21875 -0.765625 -0.671875 -1.328125q-0.453125 -0.5625 -1.140625 -0.875q-0.671875 -0.3125 -1.59375 -0.3125q-0.71875 0 -1.421875 0.296875q-0.6875 0.296875 -1.21875 0.84375q-0.546875 0.5625 -0.875 1.375q-0.328125 0.8125 -0.328125 1.828125l0 0.328125q0 0.890625 0.296875 1.640625q0.296875 0.75 0.828125 1.296875q0.53125 0.546875 1.265625 0.859375q0.75 0.296875 1.640625 0.296875zm-0.1875 -7.578125q0.5625 0 0.953125 0.203125q0.40625 0.203125 0.671875 0.53125q0.265625 0.328125 0.40625 0.78125q0.15625 0.4375 0.15625 0.828125l0 0.078125l-4.546875 0q0.09375 -0.59375 0.296875 -1.03125q0.21875 -0.453125 0.53125 -0.765625q0.3125 -0.3125 0.703125 -0.46875q0.390625 -0.15625 0.828125 -0.15625zm9.6640625 6.40625q-0.6875 0 -1.140625 -0.265625q-0.453125 -0.28125 -0.734375 -0.71875q-0.28125 -0.421875 -0.40625 -0.96875q-0.109375 -0.546875 -0.109375 -1.09375l0 -0.328125q0 -0.546875 0.109375 -1.078125q0.125 -0.546875 0.40625 -0.984375q0.28125 -0.4375 0.734375 -0.703125q0.46875 -0.265625 1.140625 -0.265625q0.4375 0 0.8125 0.15625q0.375 0.140625 0.65625 0.390625q0.265625 0.265625 0.421875 0.609375q0.171875 0.328125 0.171875 0.71875l1.375 0q0 -0.640625 -0.265625 -1.203125q-0.25 -0.5625 -0.703125 -0.984375q-0.46875 -0.40625 -1.09375 -0.640625q-0.625 -0.234375 -1.375 -0.234375q-0.96875 0 -1.6875 0.34375q-0.71875 0.34375 -1.1875 0.921875q-0.484375 0.578125 -0.734375 1.34375q-0.234375 0.765625 -0.234375 1.609375l0 0.328125q0 0.84375 0.234375 1.609375q0.25 0.75 0.734375 1.328125q0.46875 0.59375 1.1875 0.9375q0.71875 0.34375 1.6875 0.34375q0.671875 0 1.28125 -0.234375q0.625 -0.234375 1.09375 -0.625q0.484375 -0.375 0.765625 -0.890625q0.28125 -0.515625 0.296875 -1.078125l-1.375 0q0 0.359375 -0.1875 0.65625q-0.171875 0.296875 -0.453125 0.515625q-0.296875 0.234375 -0.671875 0.359375q-0.359375 0.125 -0.75 0.125zm19.203125 0q-0.6875 0 -1.140625 -0.265625q-0.453125 -0.28125 -0.734375 -0.71875q-0.28125 -0.421875 -0.40625 -0.96875q-0.109375 -0.546875 -0.109375 -1.09375l0 -0.328125q0 -0.546875 0.109375 -1.078125q0.125 -0.546875 0.40625 -0.984375q0.28125 -0.4375 0.734375 -0.703125q0.46875 -0.265625 1.140625 -0.265625q0.4375 0 0.8125 0.15625q0.375 0.140625 0.65625 0.390625q0.265625 0.265625 0.421875 0.609375q0.171875 0.328125 0.171875 0.71875l1.375 0q0 -0.640625 -0.265625 -1.203125q-0.25 -0.5625 -0.703125 -0.984375q-0.46875 -0.40625 -1.09375 -0.640625q-0.625 -0.234375 -1.375 -0.234375q-0.96875 0 -1.6875 0.34375q-0.71875 0.34375 -1.1875 0.921875q-0.484375 0.578125 -0.734375 1.34375q-0.234375 0.765625 -0.234375 1.609375l0 0.328125q0 0.84375 0.234375 1.609375q0.25 0.75 0.734375 1.328125q0.46875 0.59375 1.1875 0.9375q0.71875 0.34375 1.6875 0.34375q0.671875 0 1.28125 -0.234375q0.625 -0.234375 1.09375 -0.625q0.484375 -0.375 0.765625 -0.890625q0.28125 -0.515625 0.296875 -1.078125l-1.375 0q0 0.359375 -0.1875 0.65625q-0.171875 0.296875 -0.453125 0.515625q-0.296875 0.234375 -0.671875 0.359375q-0.359375 0.125 -0.75 0.125zm5.5859375 -3.296875l0 0.171875q0 0.921875 0.265625 1.703125q0.265625 0.78125 0.765625 1.359375q0.5 0.578125 1.203125 0.90625q0.71875 0.328125 1.625 0.328125q0.890625 0 1.59375 -0.328125q0.71875 -0.328125 1.21875 -0.90625q0.484375 -0.578125 0.75 -1.359375q0.265625 -0.78125 0.265625 -1.703125l0 -0.171875q0 -0.90625 -0.265625 -1.6875q-0.265625 -0.796875 -0.75 -1.375q-0.5 -0.578125 -1.21875 -0.90625q-0.71875 -0.328125 -1.609375 -0.328125q-0.890625 0 -1.609375 0.328125q-0.703125 0.328125 -1.203125 0.90625q-0.5 0.578125 -0.765625 1.375q-0.265625 0.78125 -0.265625 1.6875zm1.453125 0.171875l0 -0.171875q0 -0.609375 0.140625 -1.171875q0.15625 -0.578125 0.453125 -1.0q0.296875 -0.4375 0.734375 -0.6875q0.453125 -0.25 1.0625 -0.25q0.59375 0 1.046875 0.25q0.453125 0.25 0.75 0.6875q0.296875 0.421875 0.453125 1.0q0.15625 0.5625 0.15625 1.171875l0 0.171875q0 0.625 -0.15625 1.203125q-0.140625 0.5625 -0.4375 0.984375q-0.3125 0.4375 -0.765625 0.6875q-0.4375 0.25 -1.03125 0.25q-0.609375 0 -1.0625 -0.25q-0.453125 -0.25 -0.75 -0.6875q-0.296875 -0.421875 -0.453125 -0.984375q-0.140625 -0.578125 -0.140625 -1.203125zm11.4453125 4.140625l1.09375 0l3.453125 -8.453125l-1.484375 0l-2.359375 6.375l-0.140625 0.515625l-0.140625 -0.515625l-2.421875 -6.375l-1.484375 0l3.484375 8.453125zm10.4453125 0.15625q1.234375 0 2.078125 -0.5q0.84375 -0.5 1.265625 -1.140625l-0.890625 -0.6875q-0.390625 0.515625 -1.0 0.828125q-0.59375 0.3125 -1.375 0.3125q-0.578125 0 -1.0625 -0.21875q-0.484375 -0.21875 -0.828125 -0.59375q-0.34375 -0.359375 -0.53125 -0.828125q-0.1875 -0.46875 -0.25 -1.09375l0 -0.046875l6.046875 0l0 -0.65625q0 -0.875 -0.234375 -1.625q-0.21875 -0.765625 -0.671875 -1.328125q-0.453125 -0.5625 -1.140625 -0.875q-0.671875 -0.3125 -1.59375 -0.3125q-0.71875 0 -1.421875 0.296875q-0.6875 0.296875 -1.21875 0.84375q-0.546875 0.5625 -0.875 1.375q-0.328125 0.8125 -0.328125 1.828125l0 0.328125q0 0.890625 0.296875 1.640625q0.296875 0.75 0.828125 1.296875q0.53125 0.546875 1.265625 0.859375q0.75 0.296875 1.640625 0.296875zm-0.1875 -7.578125q0.5625 0 0.953125 0.203125q0.40625 0.203125 0.671875 0.53125q0.265625 0.328125 0.40625 0.78125q0.15625 0.4375 0.15625 0.828125l0 0.078125l-4.546875 0q0.09375 -0.59375 0.296875 -1.03125q0.21875 -0.453125 0.53125 -0.765625q0.3125 -0.3125 0.703125 -0.46875q0.390625 -0.15625 0.828125 -0.15625zm11.6015625 -1.1875q-0.921875 0 -1.65625 0.40625q-0.71875 0.390625 -1.234375 1.09375l0 -0.21875l-0.0625 -1.125l-1.375 0l0 8.453125l1.453125 0l0 -5.421875q0.140625 -0.390625 0.34375 -0.703125q0.21875 -0.328125 0.515625 -0.546875q0.3125 -0.25 0.734375 -0.375q0.4375 -0.125 0.96875 -0.125q0.421875 0 0.796875 0.046875q0.375 0.03125 0.796875 0.125l0.203125 -1.40625q-0.21875 -0.09375 -0.65625 -0.140625q-0.4375 -0.0625 -0.828125 -0.0625z" fill-rule="nonzero"/><path fill="#a64d79" fill-opacity="0.5" d="m206.83861 484.21072l546.2992 0l0 105.98422l-546.2992 0z" fill-rule="evenodd"/><path fill="#ffffff" d="m356.39282 538.6866l0 0.1875q0 0.96875 0.25 1.828125q0.25 0.84375 0.734375 1.46875q0.453125 0.625 1.125 0.984375q0.6875 0.359375 1.53125 0.359375q0.5 0 0.921875 -0.109375q0.4375 -0.109375 0.796875 -0.296875q0.21875 -0.125 0.421875 -0.296875q0.203125 -0.171875 0.375 -0.375l0 0.78125q0 0.59375 -0.171875 1.046875q-0.171875 0.46875 -0.484375 0.765625q-0.3125 0.3125 -0.765625 0.46875q-0.453125 0.171875 -1.0 0.171875q-0.3125 0 -0.625 -0.0625q-0.3125 -0.0625 -0.640625 -0.203125q-0.3125 -0.15625 -0.625 -0.390625q-0.296875 -0.234375 -0.578125 -0.59375l-0.8125 0.9375q0.3125 0.453125 0.75 0.75q0.4375 0.3125 0.90625 0.484375q0.46875 0.1875 0.921875 0.265625q0.453125 0.09375 0.8125 0.09375q0.859375 0 1.5625 -0.265625q0.71875 -0.25 1.234375 -0.734375q0.515625 -0.5 0.796875 -1.203125q0.28125 -0.703125 0.28125 -1.59375l0 -8.96875l-1.421875 0l-0.078125 1.0q-0.15625 -0.203125 -0.34375 -0.375q-0.171875 -0.171875 -0.375 -0.296875q-0.375 -0.234375 -0.84375 -0.359375q-0.453125 -0.140625 -1.0 -0.140625q-0.859375 0 -1.546875 0.359375q-0.671875 0.34375 -1.140625 0.953125q-0.46875 0.625 -0.71875 1.484375q-0.25 0.859375 -0.25 1.875zm1.5625 0.1875l0 -0.1875q0 -0.671875 0.140625 -1.265625q0.140625 -0.609375 0.4375 -1.078125q0.296875 -0.453125 0.765625 -0.71875q0.46875 -0.28125 1.140625 -0.28125q0.390625 0 0.703125 0.109375q0.328125 0.09375 0.578125 0.265625q0.265625 0.171875 0.46875 0.40625q0.203125 0.234375 0.359375 0.53125l0 4.1875q-0.15625 0.296875 -0.359375 0.546875q-0.203125 0.25 -0.453125 0.421875q-0.265625 0.171875 -0.59375 0.28125q-0.3125 0.09375 -0.71875 0.09375q-0.65625 0 -1.125 -0.265625q-0.46875 -0.265625 -0.765625 -0.734375q-0.296875 -0.453125 -0.4375 -1.046875q-0.140625 -0.609375 -0.140625 -1.265625zm8.67981 -0.1875l0 0.1875q0 0.984375 0.28125 1.828125q0.296875 0.84375 0.84375 1.46875q0.53125 0.625 1.296875 0.984375q0.78125 0.359375 1.75 0.359375q0.96875 0 1.734375 -0.359375q0.765625 -0.359375 1.3125 -0.984375q0.53125 -0.625 0.8125 -1.46875q0.296875 -0.84375 0.296875 -1.828125l0 -0.1875q0 -1.0 -0.296875 -1.84375q-0.28125 -0.859375 -0.8125 -1.484375q-0.546875 -0.625 -1.328125 -0.984375q-0.765625 -0.359375 -1.734375 -0.359375q-0.96875 0 -1.734375 0.359375q-0.765625 0.359375 -1.296875 0.984375q-0.546875 0.625 -0.84375 1.484375q-0.28125 0.84375 -0.28125 1.84375zm1.5625 0.1875l0 -0.1875q0 -0.671875 0.15625 -1.28125q0.171875 -0.625 0.5 -1.078125q0.328125 -0.46875 0.796875 -0.734375q0.484375 -0.28125 1.140625 -0.28125q0.65625 0 1.140625 0.28125q0.484375 0.265625 0.8125 0.734375q0.328125 0.453125 0.484375 1.078125q0.171875 0.609375 0.171875 1.28125l0 0.1875q0 0.671875 -0.171875 1.28125q-0.15625 0.609375 -0.46875 1.078125q-0.34375 0.46875 -0.828125 0.75q-0.484375 0.265625 -1.125 0.265625q-0.65625 0 -1.140625 -0.265625q-0.484375 -0.28125 -0.8125 -0.75q-0.328125 -0.46875 -0.5 -1.078125q-0.15625 -0.609375 -0.15625 -1.28125zm27.437775 0l0 -0.1875q0 -0.71875 -0.125 -1.359375q-0.109375 -0.65625 -0.34375 -1.1875q-0.21875 -0.46875 -0.515625 -0.84375q-0.28125 -0.390625 -0.640625 -0.671875q-0.40625 -0.28125 -0.90625 -0.4375q-0.5 -0.171875 -1.09375 -0.171875q-0.46875 0 -0.875 0.09375q-0.40625 0.09375 -0.75 0.28125q-0.265625 0.140625 -0.515625 0.34375q-0.234375 0.1875 -0.421875 0.4375l0 -4.828125l-1.5625 0l0 13.0l1.4375 0l0.078125 -1.046875q0.140625 0.203125 0.3125 0.359375q0.171875 0.15625 0.359375 0.296875q0.390625 0.265625 0.875 0.40625q0.484375 0.15625 1.078125 0.15625q0.515625 0 0.953125 -0.125q0.453125 -0.125 0.828125 -0.359375q0.515625 -0.328125 0.875 -0.828125q0.375 -0.515625 0.609375 -1.140625q0.15625 -0.484375 0.25 -1.03125q0.09375 -0.5625 0.09375 -1.15625zm-1.5625 -0.1875l0 0.1875q0 0.40625 -0.0625 0.796875q-0.046875 0.375 -0.15625 0.71875q-0.140625 0.453125 -0.375 0.8125q-0.21875 0.359375 -0.5625 0.59375q-0.25 0.1875 -0.578125 0.296875q-0.3125 0.09375 -0.703125 0.09375q-0.40625 0 -0.75 -0.109375q-0.328125 -0.109375 -0.59375 -0.296875q-0.28125 -0.203125 -0.484375 -0.453125q-0.203125 -0.265625 -0.359375 -0.5625l0 -4.0q0.140625 -0.3125 0.34375 -0.5625q0.21875 -0.265625 0.484375 -0.453125q0.265625 -0.1875 0.59375 -0.296875q0.34375 -0.109375 0.75 -0.109375q0.375 0 0.671875 0.09375q0.3125 0.078125 0.5625 0.234375q0.34375 0.203125 0.59375 0.578125q0.25 0.375 0.40625 0.828125q0.109375 0.359375 0.15625 0.78125q0.0625 0.40625 0.0625 0.828125zm10.226715 4.65625l1.421875 0l0 -9.15625l-1.5625 0l0 6.5625q-0.140625 0.296875 -0.328125 0.546875q-0.1875 0.25 -0.4375 0.4375q-0.3125 0.21875 -0.734375 0.34375q-0.40625 0.109375 -0.921875 0.109375q-0.453125 0 -0.796875 -0.109375q-0.34375 -0.125 -0.578125 -0.421875q-0.234375 -0.28125 -0.359375 -0.765625q-0.109375 -0.5 -0.109375 -1.25l0 -5.453125l-1.578125 0l0 5.4375q0 1.03125 0.21875 1.765625q0.234375 0.71875 0.65625 1.203125q0.40625 0.46875 0.984375 0.703125q0.59375 0.21875 1.3125 0.21875q0.890625 0 1.578125 -0.375q0.6875 -0.375 1.140625 -1.0625l0.09375 1.265625zm4.6173096 -9.15625l0 1.359375l3.109375 0l0 6.4375l-3.109375 0l0 1.359375l7.671875 0l0 -1.359375l-3.0 0l0 -7.796875l-4.671875 0zm2.90625 -2.40625q0 0.390625 0.234375 0.640625q0.234375 0.25 0.703125 0.25q0.46875 0 0.703125 -0.25q0.234375 -0.25 0.234375 -0.640625q0 -0.203125 -0.0625 -0.375q-0.0625 -0.1875 -0.203125 -0.3125q-0.109375 -0.109375 -0.28125 -0.171875q-0.171875 -0.0625 -0.390625 -0.0625q-0.21875 0 -0.390625 0.0625q-0.171875 0.0625 -0.28125 0.171875q-0.140625 0.140625 -0.203125 0.3125q-0.0625 0.171875 -0.0625 0.375zm7.49234 -1.4375l0 1.359375l3.109375 0l0 10.28125l-3.109375 0l0 1.359375l7.671875 0l0 -1.359375l-3.0 0l0 -11.640625l-4.671875 0zm9.851685 8.34375l0 0.1875q0 0.96875 0.265625 1.828125q0.265625 0.84375 0.734375 1.46875q0.46875 0.625 1.140625 0.984375q0.6875 0.359375 1.515625 0.359375q0.84375 0 1.46875 -0.28125q0.640625 -0.296875 1.09375 -0.859375l0.078125 0.96875l1.4375 0l0 -13.0l-1.578125 0l0 4.75q-0.4375 -0.53125 -1.0625 -0.796875q-0.609375 -0.28125 -1.421875 -0.28125q-0.84375 0 -1.53125 0.359375q-0.671875 0.34375 -1.140625 0.953125q-0.484375 0.625 -0.75 1.484375q-0.25 0.859375 -0.25 1.875zm1.5625 0.1875l0 -0.1875q0 -0.671875 0.140625 -1.265625q0.15625 -0.609375 0.453125 -1.078125q0.296875 -0.453125 0.765625 -0.71875q0.46875 -0.28125 1.140625 -0.28125q0.765625 0 1.28125 0.359375q0.515625 0.359375 0.8125 0.921875l0 4.25q-0.296875 0.59375 -0.8125 0.953125q-0.515625 0.359375 -1.296875 0.359375q-0.65625 0 -1.125 -0.265625q-0.46875 -0.265625 -0.765625 -0.734375q-0.296875 -0.453125 -0.453125 -1.046875q-0.140625 -0.609375 -0.140625 -1.265625zm26.375275 -0.28125l0 -1.28125l-6.46875 0l0 1.28125l6.46875 0zm7.257965 -6.625l-1.5625 0l0 2.21875l-2.40625 0l0 1.21875l2.40625 0l0 4.96875q0 0.84375 0.21875 1.4375q0.21875 0.59375 0.609375 0.96875q0.390625 0.390625 0.921875 0.5625q0.53125 0.171875 1.140625 0.171875q0.359375 0 0.71875 -0.046875q0.375 -0.03125 0.703125 -0.09375q0.34375 -0.0625 0.609375 -0.140625q0.28125 -0.09375 0.484375 -0.21875l-0.21875 -1.109375q-0.15625 0.046875 -0.375 0.09375q-0.21875 0.046875 -0.484375 0.078125q-0.25 0.046875 -0.53125 0.078125q-0.265625 0.03125 -0.515625 0.03125q-0.34375 0 -0.65625 -0.078125q-0.3125 -0.09375 -0.546875 -0.3125q-0.234375 -0.203125 -0.375 -0.546875q-0.140625 -0.34375 -0.140625 -0.875l0 -4.96875l3.5 0l0 -1.21875l-3.5 0l0 -2.21875zm6.257965 6.71875l0 0.1875q0 0.984375 0.28125 1.828125q0.296875 0.84375 0.84375 1.46875q0.53125 0.625 1.296875 0.984375q0.78125 0.359375 1.75 0.359375q0.96875 0 1.734375 -0.359375q0.765625 -0.359375 1.3125 -0.984375q0.53125 -0.625 0.8125 -1.46875q0.296875 -0.84375 0.296875 -1.828125l0 -0.1875q0 -1.0 -0.296875 -1.84375q-0.28125 -0.859375 -0.8125 -1.484375q-0.546875 -0.625 -1.328125 -0.984375q-0.765625 -0.359375 -1.734375 -0.359375q-0.96875 0 -1.734375 0.359375q-0.765625 0.359375 -1.296875 0.984375q-0.546875 0.625 -0.84375 1.484375q-0.28125 0.84375 -0.28125 1.84375zm1.5625 0.1875l0 -0.1875q0 -0.671875 0.15625 -1.28125q0.171875 -0.625 0.5 -1.078125q0.328125 -0.46875 0.796875 -0.734375q0.484375 -0.28125 1.140625 -0.28125q0.65625 0 1.140625 0.28125q0.484375 0.265625 0.8125 0.734375q0.328125 0.453125 0.484375 1.078125q0.171875 0.609375 0.171875 1.28125l0 0.1875q0 0.671875 -0.171875 1.28125q-0.15625 0.609375 -0.46875 1.078125q-0.34375 0.46875 -0.828125 0.75q-0.484375 0.265625 -1.125 0.265625q-0.65625 0 -1.140625 -0.265625q-0.484375 -0.28125 -0.8125 -0.75q-0.328125 -0.46875 -0.5 -1.078125q-0.15625 -0.609375 -0.15625 -1.28125zm8.83606 -0.1875l0 0.1875q0 0.984375 0.28125 1.828125q0.296875 0.84375 0.84375 1.46875q0.53125 0.625 1.296875 0.984375q0.78125 0.359375 1.75 0.359375q0.96875 0 1.734375 -0.359375q0.765625 -0.359375 1.3125 -0.984375q0.53125 -0.625 0.8125 -1.46875q0.296875 -0.84375 0.296875 -1.828125l0 -0.1875q0 -1.0 -0.296875 -1.84375q-0.28125 -0.859375 -0.8125 -1.484375q-0.546875 -0.625 -1.328125 -0.984375q-0.765625 -0.359375 -1.734375 -0.359375q-0.96875 0 -1.734375 0.359375q-0.765625 0.359375 -1.296875 0.984375q-0.546875 0.625 -0.84375 1.484375q-0.28125 0.84375 -0.28125 1.84375zm1.5625 0.1875l0 -0.1875q0 -0.671875 0.15625 -1.28125q0.171875 -0.625 0.5 -1.078125q0.328125 -0.46875 0.796875 -0.734375q0.484375 -0.28125 1.140625 -0.28125q0.65625 0 1.140625 0.28125q0.484375 0.265625 0.8125 0.734375q0.328125 0.453125 0.484375 1.078125q0.171875 0.609375 0.171875 1.28125l0 0.1875q0 0.671875 -0.171875 1.28125q-0.15625 0.609375 -0.46875 1.078125q-0.34375 0.46875 -0.828125 0.75q-0.484375 0.265625 -1.125 0.265625q-0.65625 0 -1.140625 -0.265625q-0.484375 -0.28125 -0.8125 -0.75q-0.328125 -0.46875 -0.5 -1.078125q-0.15625 -0.609375 -0.15625 -1.28125zm9.52356 -8.53125l0 1.359375l3.109375 0l0 10.28125l-3.109375 0l0 1.359375l7.671875 0l0 -1.359375l-3.0 0l0 -11.640625l-4.671875 0zm14.195465 13.171875q1.34375 0 2.25 -0.53125q0.90625 -0.546875 1.359375 -1.234375l-0.953125 -0.75q-0.4375 0.5625 -1.09375 0.90625q-0.640625 0.328125 -1.484375 0.328125q-0.625 0 -1.15625 -0.234375q-0.515625 -0.234375 -0.890625 -0.65625q-0.359375 -0.390625 -0.578125 -0.890625q-0.203125 -0.515625 -0.265625 -1.171875l0 -0.0625l6.546875 0l0 -0.703125q0 -0.953125 -0.25 -1.765625q-0.234375 -0.828125 -0.71875 -1.4375q-0.5 -0.609375 -1.25 -0.953125q-0.734375 -0.34375 -1.71875 -0.34375q-0.78125 0 -1.53125 0.328125q-0.75 0.3125 -1.34375 0.921875q-0.578125 0.609375 -0.9375 1.484375q-0.359375 0.875 -0.359375 1.984375l0 0.359375q0 0.953125 0.3125 1.765625q0.328125 0.8125 0.90625 1.40625q0.578125 0.59375 1.375 0.921875q0.8125 0.328125 1.78125 0.328125zm-0.203125 -8.203125q0.609375 0 1.03125 0.21875q0.4375 0.21875 0.734375 0.5625q0.28125 0.359375 0.4375 0.84375q0.171875 0.484375 0.171875 0.921875l0 0.0625l-4.921875 0q0.078125 -0.625 0.3125 -1.109375q0.234375 -0.484375 0.578125 -0.828125q0.34375 -0.328125 0.765625 -0.5q0.421875 -0.171875 0.890625 -0.171875zm10.33609 2.265625l-2.421875 -3.390625l-1.796875 0l3.40625 4.53125l-3.5 4.625l1.828125 0l2.515625 -3.484375l2.53125 3.484375l1.8125 0l-3.5 -4.625l3.40625 -4.53125l-1.828125 0l-2.453125 3.390625zm10.664185 5.9375q1.34375 0 2.25 -0.53125q0.90625 -0.546875 1.359375 -1.234375l-0.953125 -0.75q-0.4375 0.5625 -1.09375 0.90625q-0.640625 0.328125 -1.484375 0.328125q-0.625 0 -1.15625 -0.234375q-0.515625 -0.234375 -0.890625 -0.65625q-0.359375 -0.390625 -0.578125 -0.890625q-0.203125 -0.515625 -0.265625 -1.171875l0 -0.0625l6.546875 0l0 -0.703125q0 -0.953125 -0.25 -1.765625q-0.234375 -0.828125 -0.71875 -1.4375q-0.5 -0.609375 -1.25 -0.953125q-0.734375 -0.34375 -1.71875 -0.34375q-0.78125 0 -1.53125 0.328125q-0.75 0.3125 -1.34375 0.921875q-0.578125 0.609375 -0.9375 1.484375q-0.359375 0.875 -0.359375 1.984375l0 0.359375q0 0.953125 0.3125 1.765625q0.328125 0.8125 0.90625 1.40625q0.578125 0.59375 1.375 0.921875q0.8125 0.328125 1.78125 0.328125zm-0.203125 -8.203125q0.609375 0 1.03125 0.21875q0.4375 0.21875 0.734375 0.5625q0.28125 0.359375 0.4375 0.84375q0.171875 0.484375 0.171875 0.921875l0 0.0625l-4.921875 0q0.078125 -0.625 0.3125 -1.109375q0.234375 -0.484375 0.578125 -0.828125q0.34375 -0.328125 0.765625 -0.5q0.421875 -0.171875 0.890625 -0.171875zm10.46106 6.9375q-0.734375 0 -1.234375 -0.296875q-0.5 -0.296875 -0.796875 -0.765625q-0.296875 -0.46875 -0.4375 -1.046875q-0.125 -0.59375 -0.125 -1.203125l0 -0.34375q0 -0.59375 0.125 -1.171875q0.140625 -0.59375 0.4375 -1.0625q0.3125 -0.46875 0.796875 -0.75q0.5 -0.296875 1.234375 -0.296875q0.46875 0 0.875 0.15625q0.421875 0.15625 0.71875 0.4375q0.296875 0.28125 0.46875 0.65625q0.171875 0.359375 0.171875 0.78125l1.484375 0q0 -0.703125 -0.28125 -1.3125q-0.28125 -0.609375 -0.765625 -1.0625q-0.5 -0.4375 -1.1875 -0.6875q-0.671875 -0.265625 -1.484375 -0.265625q-1.046875 0 -1.828125 0.375q-0.765625 0.375 -1.28125 1.0q-0.53125 0.640625 -0.796875 1.46875q-0.265625 0.828125 -0.265625 1.734375l0 0.34375q0 0.921875 0.265625 1.75q0.265625 0.8125 0.796875 1.453125q0.515625 0.625 1.28125 1.0q0.78125 0.375 1.828125 0.375q0.71875 0 1.390625 -0.25q0.671875 -0.25 1.1875 -0.671875q0.515625 -0.421875 0.828125 -0.96875q0.3125 -0.5625 0.3125 -1.171875l-1.484375 0q0 0.390625 -0.203125 0.71875q-0.1875 0.3125 -0.5 0.5625q-0.3125 0.234375 -0.71875 0.375q-0.390625 0.140625 -0.8125 0.140625zm20.79718 0q-0.734375 0 -1.234375 -0.296875q-0.5 -0.296875 -0.796875 -0.765625q-0.296875 -0.46875 -0.4375 -1.046875q-0.125 -0.59375 -0.125 -1.203125l0 -0.34375q0 -0.59375 0.125 -1.171875q0.140625 -0.59375 0.4375 -1.0625q0.3125 -0.46875 0.796875 -0.75q0.5 -0.296875 1.234375 -0.296875q0.46875 0 0.875 0.15625q0.421875 0.15625 0.71875 0.4375q0.296875 0.28125 0.46875 0.65625q0.171875 0.359375 0.171875 0.78125l1.484375 0q0 -0.703125 -0.28125 -1.3125q-0.28125 -0.609375 -0.765625 -1.0625q-0.5 -0.4375 -1.1875 -0.6875q-0.671875 -0.265625 -1.484375 -0.265625q-1.046875 0 -1.828125 0.375q-0.765625 0.375 -1.28125 1.0q-0.53125 0.640625 -0.796875 1.46875q-0.265625 0.828125 -0.265625 1.734375l0 0.34375q0 0.921875 0.265625 1.75q0.265625 0.8125 0.796875 1.453125q0.515625 0.625 1.28125 1.0q0.78125 0.375 1.828125 0.375q0.71875 0 1.390625 -0.25q0.671875 -0.25 1.1875 -0.671875q0.515625 -0.421875 0.828125 -0.96875q0.3125 -0.5625 0.3125 -1.171875l-1.484375 0q0 0.390625 -0.203125 0.71875q-0.1875 0.3125 -0.5 0.5625q-0.3125 0.234375 -0.71875 0.375q-0.390625 0.140625 -0.8125 0.140625zm6.0548096 -3.5625l0 0.1875q0 0.984375 0.28125 1.828125q0.296875 0.84375 0.84375 1.46875q0.53125 0.625 1.296875 0.984375q0.78125 0.359375 1.75 0.359375q0.96875 0 1.734375 -0.359375q0.765625 -0.359375 1.3125 -0.984375q0.53125 -0.625 0.8125 -1.46875q0.296875 -0.84375 0.296875 -1.828125l0 -0.1875q0 -1.0 -0.296875 -1.84375q-0.28125 -0.859375 -0.8125 -1.484375q-0.546875 -0.625 -1.328125 -0.984375q-0.765625 -0.359375 -1.734375 -0.359375q-0.96875 0 -1.734375 0.359375q-0.765625 0.359375 -1.296875 0.984375q-0.546875 0.625 -0.84375 1.484375q-0.28125 0.84375 -0.28125 1.84375zm1.5625 0.1875l0 -0.1875q0 -0.671875 0.15625 -1.28125q0.171875 -0.625 0.5 -1.078125q0.328125 -0.46875 0.796875 -0.734375q0.484375 -0.28125 1.140625 -0.28125q0.65625 0 1.140625 0.28125q0.484375 0.265625 0.8125 0.734375q0.328125 0.453125 0.484375 1.078125q0.171875 0.609375 0.171875 1.28125l0 0.1875q0 0.671875 -0.171875 1.28125q-0.15625 0.609375 -0.46875 1.078125q-0.34375 0.46875 -0.828125 0.75q-0.484375 0.265625 -1.125 0.265625q-0.65625 0 -1.140625 -0.265625q-0.484375 -0.28125 -0.8125 -0.75q-0.328125 -0.46875 -0.5 -1.078125q-0.15625 -0.609375 -0.15625 -1.28125zm12.39856 4.46875l1.1875 0l3.734375 -9.15625l-1.59375 0l-2.5625 6.90625l-0.15625 0.5625l-0.140625 -0.5625l-2.625 -6.90625l-1.609375 0l3.765625 9.15625zm11.320435 0.171875q1.34375 0 2.25 -0.53125q0.90625 -0.546875 1.359375 -1.234375l-0.953125 -0.75q-0.4375 0.5625 -1.09375 0.90625q-0.640625 0.328125 -1.484375 0.328125q-0.625 0 -1.15625 -0.234375q-0.515625 -0.234375 -0.890625 -0.65625q-0.359375 -0.390625 -0.578125 -0.890625q-0.203125 -0.515625 -0.265625 -1.171875l0 -0.0625l6.546875 0l0 -0.703125q0 -0.953125 -0.25 -1.765625q-0.234375 -0.828125 -0.71875 -1.4375q-0.5 -0.609375 -1.25 -0.953125q-0.734375 -0.34375 -1.71875 -0.34375q-0.78125 0 -1.53125 0.328125q-0.75 0.3125 -1.34375 0.921875q-0.578125 0.609375 -0.9375 1.484375q-0.359375 0.875 -0.359375 1.984375l0 0.359375q0 0.953125 0.3125 1.765625q0.328125 0.8125 0.90625 1.40625q0.578125 0.59375 1.375 0.921875q0.8125 0.328125 1.78125 0.328125zm-0.203125 -8.203125q0.609375 0 1.03125 0.21875q0.4375 0.21875 0.734375 0.5625q0.28125 0.359375 0.4375 0.84375q0.171875 0.484375 0.171875 0.921875l0 0.0625l-4.921875 0q0.078125 -0.625 0.3125 -1.109375q0.234375 -0.484375 0.578125 -0.828125q0.34375 -0.328125 0.765625 -0.5q0.421875 -0.171875 0.890625 -0.171875zm12.554871 -1.296875q-1.0 0 -1.78125 0.4375q-0.78125 0.4375 -1.34375 1.1875l0 -0.21875l-0.078125 -1.234375l-1.484375 0l0 9.15625l1.578125 0l0 -5.875q0.15625 -0.421875 0.375 -0.765625q0.234375 -0.34375 0.546875 -0.578125q0.359375 -0.265625 0.8125 -0.40625q0.46875 -0.140625 1.046875 -0.140625q0.453125 0 0.859375 0.046875q0.40625 0.046875 0.859375 0.140625l0.21875 -1.53125q-0.234375 -0.09375 -0.703125 -0.15625q-0.46875 -0.0625 -0.90625 -0.0625z" fill-rule="nonzero"/><path fill="#3c78d8" fill-opacity="0.5" d="m308.14545 298.46243l343.71655 0l0 87.87402l-343.71655 0z" fill-rule="evenodd"/><path fill="#ffffff" d="m431.46738 335.31943l0 1.46875l3.359375 0l0 11.078125l-3.359375 0l0 1.453125l8.265625 0l0 -1.453125l-3.21875 0l0 -12.546875l-5.046875 0zm11.195587 4.140625l0 1.46875l3.359375 0l0 6.9375l-3.359375 0l0 1.453125l8.265625 0l0 -1.453125l-3.21875 0l0 -8.40625l-5.046875 0zm3.140625 -2.578125q0 0.40625 0.25 0.6875q0.25 0.265625 0.765625 0.265625q0.5 0 0.75 -0.265625q0.25 -0.28125 0.25 -0.6875q0 -0.234375 -0.078125 -0.421875q-0.0625 -0.1875 -0.203125 -0.328125q-0.125 -0.109375 -0.3125 -0.171875q-0.171875 -0.078125 -0.40625 -0.078125q-0.25 0 -0.4375 0.078125q-0.171875 0.0625 -0.296875 0.171875q-0.140625 0.140625 -0.21875 0.34375q-0.0625 0.1875 -0.0625 0.40625zm7.7893066 12.4375l1.6875 0l0 -7.0625q0.171875 -0.328125 0.40625 -0.59375q0.234375 -0.265625 0.515625 -0.453125q0.328125 -0.234375 0.71875 -0.359375q0.40625 -0.140625 0.875 -0.140625q0.546875 0 0.953125 0.125q0.421875 0.125 0.703125 0.40625q0.28125 0.296875 0.421875 0.75q0.15625 0.453125 0.15625 1.109375l0 6.21875l1.6875 0l0 -6.265625q0 -0.96875 -0.25 -1.6875q-0.234375 -0.71875 -0.6875 -1.1875q-0.4375 -0.453125 -1.078125 -0.671875q-0.625 -0.21875 -1.40625 -0.21875q-0.5625 0 -1.078125 0.171875q-0.515625 0.15625 -0.953125 0.4375q-0.296875 0.1875 -0.5625 0.453125q-0.25 0.265625 -0.46875 0.5625l-0.125 -1.453125l-1.515625 0l0 9.859375zm14.148712 -4.59375l3.625 4.59375l2.140625 0l-4.609375 -5.75l4.0 -4.109375l-2.046875 0l-3.234375 3.25l-1.109375 1.1875l0 -8.578125l-1.6875 0l0 14.0l1.6875 0l0 -3.40625l1.234375 -1.1875zm20.219269 -5.265625l-1.515625 0l0 9.859375l1.609375 0l0 -7.84375q0.046875 -0.140625 0.125 -0.265625q0.09375 -0.140625 0.21875 -0.234375q0.15625 -0.125 0.375 -0.1875q0.21875 -0.078125 0.53125 -0.078125q0.265625 0 0.46875 0.078125q0.203125 0.0625 0.34375 0.203125q0.15625 0.15625 0.21875 0.390625q0.0625 0.234375 0.0625 0.546875l0 7.390625l1.609375 0l0 -7.375q0 -0.0625 0 -0.09375q0 -0.046875 0 -0.09375q0.03125 -0.21875 0.109375 -0.40625q0.078125 -0.1875 0.21875 -0.34375q0.15625 -0.125 0.375 -0.203125q0.21875 -0.09375 0.515625 -0.09375q0.28125 0 0.484375 0.078125q0.21875 0.0625 0.375 0.21875q0.140625 0.15625 0.203125 0.390625q0.078125 0.234375 0.078125 0.546875l0 7.375l1.59375 0l0 -7.359375q0 -0.71875 -0.171875 -1.234375q-0.15625 -0.53125 -0.453125 -0.859375q-0.28125 -0.28125 -0.703125 -0.421875q-0.40625 -0.15625 -0.921875 -0.15625q-0.359375 0 -0.6875 0.09375q-0.3125 0.09375 -0.5625 0.25q-0.203125 0.125 -0.375 0.3125q-0.171875 0.1875 -0.296875 0.390625q-0.109375 -0.21875 -0.25 -0.40625q-0.140625 -0.1875 -0.3125 -0.3125q-0.234375 -0.15625 -0.546875 -0.234375q-0.3125 -0.09375 -0.703125 -0.09375q-0.6875 0 -1.1875 0.296875q-0.484375 0.28125 -0.78125 0.8125l-0.046875 -0.9375zm16.898682 9.859375l1.75 0l0 -0.140625q-0.15625 -0.421875 -0.25 -0.96875q-0.09375 -0.546875 -0.09375 -1.046875l0 -4.578125q0 -0.828125 -0.296875 -1.4375q-0.296875 -0.625 -0.8125 -1.046875q-0.53125 -0.40625 -1.25 -0.609375q-0.71875 -0.203125 -1.5625 -0.203125q-0.921875 0 -1.65625 0.25q-0.71875 0.25 -1.21875 0.65625q-0.5 0.421875 -0.78125 0.953125q-0.265625 0.515625 -0.265625 1.046875l1.6875 0q0 -0.3125 0.140625 -0.59375q0.15625 -0.28125 0.4375 -0.5q0.265625 -0.203125 0.65625 -0.328125q0.40625 -0.140625 0.90625 -0.140625q0.546875 0 0.96875 0.140625q0.4375 0.140625 0.734375 0.390625q0.296875 0.25 0.453125 0.609375q0.171875 0.34375 0.171875 0.796875l0 0.78125l-1.828125 0q-1.03125 0 -1.875 0.203125q-0.828125 0.1875 -1.421875 0.59375q-0.59375 0.40625 -0.921875 1.015625q-0.3125 0.609375 -0.3125 1.421875q0 0.625 0.234375 1.15625q0.25 0.53125 0.6875 0.90625q0.4375 0.40625 1.0625 0.640625q0.640625 0.21875 1.4375 0.21875q0.46875 0 0.890625 -0.109375q0.4375 -0.09375 0.828125 -0.265625q0.375 -0.171875 0.6875 -0.390625q0.3125 -0.234375 0.5625 -0.5q0.03125 0.3125 0.09375 0.609375q0.0625 0.28125 0.15625 0.46875zm-2.984375 -1.28125q-0.484375 0 -0.859375 -0.125q-0.375 -0.140625 -0.625 -0.359375q-0.234375 -0.21875 -0.359375 -0.53125q-0.125 -0.3125 -0.125 -0.671875q0 -0.390625 0.140625 -0.6875q0.140625 -0.296875 0.40625 -0.515625q0.390625 -0.3125 1.03125 -0.453125q0.65625 -0.15625 1.53125 -0.15625l1.5625 0l0 2.0q-0.140625 0.28125 -0.40625 0.5625q-0.25 0.265625 -0.59375 0.46875q-0.34375 0.203125 -0.78125 0.34375q-0.421875 0.125 -0.921875 0.125zm7.961212 -8.578125l0 1.46875l3.3593445 0l0 6.9375l-3.3593445 0l0 1.453125l8.2655945 0l0 -1.453125l-3.21875 0l0 -8.40625l-5.0468445 0zm3.1405945 -2.578125q0 0.40625 0.25 0.6875q0.25 0.265625 0.765625 0.265625q0.5 0 0.75 -0.265625q0.25 -0.28125 0.25 -0.6875q0 -0.234375 -0.078125 -0.421875q-0.0625 -0.1875 -0.203125 -0.328125q-0.125 -0.109375 -0.3125 -0.171875q-0.171875 -0.078125 -0.40625 -0.078125q-0.25 0 -0.4375 0.078125q-0.171875 0.0625 -0.296875 0.171875q-0.140625 0.140625 -0.21875 0.34375q-0.0625 0.1875 -0.0625 0.40625zm7.7893066 12.4375l1.6875 0l0 -7.0625q0.171875 -0.328125 0.40625 -0.59375q0.234375 -0.265625 0.515625 -0.453125q0.328125 -0.234375 0.71875 -0.359375q0.40625 -0.140625 0.875 -0.140625q0.546875 0 0.953125 0.125q0.421875 0.125 0.703125 0.40625q0.28125 0.296875 0.421875 0.75q0.15625 0.453125 0.15625 1.109375l0 6.21875l1.6875 0l0 -6.265625q0 -0.96875 -0.25 -1.6875q-0.234375 -0.71875 -0.6875 -1.1875q-0.4375 -0.453125 -1.078125 -0.671875q-0.625 -0.21875 -1.40625 -0.21875q-0.5625 0 -1.078125 0.171875q-0.515625 0.15625 -0.953125 0.4375q-0.296875 0.1875 -0.5625 0.453125q-0.25 0.265625 -0.46875 0.5625l-0.125 -1.453125l-1.515625 0l0 9.859375z" fill-rule="nonzero"/><path fill="#f6b26b" d="m161.46457 27.496077l637.0709 0l0 182.77165l-637.0709 0z" fill-rule="evenodd"/><path fill="#ffffff" d="m178.15207 193.2371l0 -1.1875l-5.984375 0l0 1.1875l5.984375 0zm6.6953125 -6.109375l-1.453125 0l0 2.046875l-2.21875 0l0 1.109375l2.21875 0l0 4.59375q0 0.78125 0.203125 1.34375q0.21875 0.546875 0.578125 0.890625q0.359375 0.34375 0.84375 0.515625q0.484375 0.15625 1.046875 0.15625q0.34375 0 0.671875 -0.03125q0.34375 -0.03125 0.65625 -0.09375q0.296875 -0.0625 0.546875 -0.140625q0.265625 -0.078125 0.453125 -0.1875l-0.203125 -1.03125q-0.140625 0.03125 -0.34375 0.078125q-0.203125 0.046875 -0.4375 0.078125q-0.25 0.046875 -0.5 0.078125q-0.25 0.015625 -0.484375 0.015625q-0.3125 0 -0.609375 -0.078125q-0.28125 -0.078125 -0.5 -0.265625q-0.21875 -0.1875 -0.34375 -0.5q-0.125 -0.328125 -0.125 -0.828125l0 -4.59375l3.21875 0l0 -1.109375l-3.21875 0l0 -2.046875zm5.7734375 6.1875l0 0.171875q0 0.921875 0.265625 1.703125q0.265625 0.78125 0.765625 1.359375q0.5 0.578125 1.203125 0.90625q0.71875 0.328125 1.625 0.328125q0.890625 0 1.59375 -0.328125q0.71875 -0.328125 1.21875 -0.90625q0.484375 -0.578125 0.75 -1.359375q0.265625 -0.78125 0.265625 -1.703125l0 -0.171875q0 -0.90625 -0.265625 -1.6875q-0.265625 -0.796875 -0.75 -1.375q-0.5 -0.578125 -1.21875 -0.90625q-0.71875 -0.328125 -1.609375 -0.328125q-0.890625 0 -1.609375 0.328125q-0.703125 0.328125 -1.203125 0.90625q-0.5 0.578125 -0.765625 1.375q-0.265625 0.78125 -0.265625 1.6875zm1.453125 0.171875l0 -0.171875q0 -0.609375 0.140625 -1.171875q0.15625 -0.578125 0.453125 -1.0q0.296875 -0.4375 0.734375 -0.6875q0.453125 -0.25 1.0625 -0.25q0.59375 0 1.046875 0.25q0.453125 0.25 0.75 0.6875q0.296875 0.421875 0.453125 1.0q0.15625 0.5625 0.15625 1.171875l0 0.171875q0 0.625 -0.15625 1.203125q-0.140625 0.5625 -0.4375 0.984375q-0.3125 0.4375 -0.765625 0.6875q-0.4375 0.25 -1.03125 0.25q-0.609375 0 -1.0625 -0.25q-0.453125 -0.25 -0.75 -0.6875q-0.296875 -0.421875 -0.453125 -0.984375q-0.140625 -0.578125 -0.140625 -1.203125zm8.1484375 -0.171875l0 0.171875q0 0.921875 0.265625 1.703125q0.265625 0.78125 0.765625 1.359375q0.5 0.578125 1.203125 0.90625q0.71875 0.328125 1.625 0.328125q0.890625 0 1.59375 -0.328125q0.71875 -0.328125 1.21875 -0.90625q0.484375 -0.578125 0.75 -1.359375q0.265625 -0.78125 0.265625 -1.703125l0 -0.171875q0 -0.90625 -0.265625 -1.6875q-0.265625 -0.796875 -0.75 -1.375q-0.5 -0.578125 -1.21875 -0.90625q-0.71875 -0.328125 -1.609375 -0.328125q-0.890625 0 -1.609375 0.328125q-0.703125 0.328125 -1.203125 0.90625q-0.5 0.578125 -0.765625 1.375q-0.265625 0.78125 -0.265625 1.6875zm1.453125 0.171875l0 -0.171875q0 -0.609375 0.140625 -1.171875q0.15625 -0.578125 0.453125 -1.0q0.296875 -0.4375 0.734375 -0.6875q0.453125 -0.25 1.0625 -0.25q0.59375 0 1.046875 0.25q0.453125 0.25 0.75 0.6875q0.296875 0.421875 0.453125 1.0q0.15625 0.5625 0.15625 1.171875l0 0.171875q0 0.625 -0.15625 1.203125q-0.140625 0.5625 -0.4375 0.984375q-0.3125 0.4375 -0.765625 0.6875q-0.4375 0.25 -1.03125 0.25q-0.609375 0 -1.0625 -0.25q-0.453125 -0.25 -0.75 -0.6875q-0.296875 -0.421875 -0.453125 -0.984375q-0.140625 -0.578125 -0.140625 -1.203125zm8.7890625 -7.859375l0 1.25l2.875 0l0 9.5l-2.875 0l0 1.25l7.078125 0l0 -1.25l-2.765625 0l0 -10.75l-4.3125 0zm13.1015625 12.15625q1.234375 0 2.078125 -0.5q0.84375 -0.5 1.265625 -1.140625l-0.890625 -0.6875q-0.390625 0.515625 -1.0 0.828125q-0.59375 0.3125 -1.375 0.3125q-0.578125 0 -1.0625 -0.21875q-0.484375 -0.21875 -0.828125 -0.59375q-0.34375 -0.359375 -0.53125 -0.828125q-0.1875 -0.46875 -0.25 -1.09375l0 -0.046875l6.046875 0l0 -0.65625q0 -0.875 -0.234375 -1.625q-0.21875 -0.765625 -0.671875 -1.328125q-0.453125 -0.5625 -1.140625 -0.875q-0.671875 -0.3125 -1.59375 -0.3125q-0.71875 0 -1.421875 0.296875q-0.6875 0.296875 -1.21875 0.84375q-0.546875 0.5625 -0.875 1.375q-0.328125 0.8125 -0.328125 1.828125l0 0.328125q0 0.890625 0.296875 1.640625q0.296875 0.75 0.828125 1.296875q0.53125 0.546875 1.265625 0.859375q0.75 0.296875 1.640625 0.296875zm-0.1875 -7.578125q0.5625 0 0.953125 0.203125q0.40625 0.203125 0.671875 0.53125q0.265625 0.328125 0.40625 0.78125q0.15625 0.4375 0.15625 0.828125l0 0.078125l-4.546875 0q0.09375 -0.59375 0.296875 -1.03125q0.21875 -0.453125 0.53125 -0.765625q0.3125 -0.3125 0.703125 -0.46875q0.390625 -0.15625 0.828125 -0.15625zm9.5546875 2.09375l-2.234375 -3.125l-1.671875 0l3.140625 4.171875l-3.234375 4.28125l1.6875 0l2.34375 -3.21875l2.328125 3.21875l1.671875 0l-3.234375 -4.28125l3.15625 -4.171875l-1.703125 0l-2.25 3.125zm9.8359375 5.484375q1.234375 0 2.078125 -0.5q0.84375 -0.5 1.265625 -1.140625l-0.890625 -0.6875q-0.390625 0.515625 -1.0 0.828125q-0.59375 0.3125 -1.375 0.3125q-0.578125 0 -1.0625 -0.21875q-0.484375 -0.21875 -0.828125 -0.59375q-0.34375 -0.359375 -0.53125 -0.828125q-0.1875 -0.46875 -0.25 -1.09375l0 -0.046875l6.046875 0l0 -0.65625q0 -0.875 -0.234375 -1.625q-0.21875 -0.765625 -0.671875 -1.328125q-0.453125 -0.5625 -1.140625 -0.875q-0.671875 -0.3125 -1.59375 -0.3125q-0.71875 0 -1.421875 0.296875q-0.6875 0.296875 -1.21875 0.84375q-0.546875 0.5625 -0.875 1.375q-0.328125 0.8125 -0.328125 1.828125l0 0.328125q0 0.890625 0.296875 1.640625q0.296875 0.75 0.828125 1.296875q0.53125 0.546875 1.265625 0.859375q0.75 0.296875 1.640625 0.296875zm-0.1875 -7.578125q0.5625 0 0.953125 0.203125q0.40625 0.203125 0.671875 0.53125q0.265625 0.328125 0.40625 0.78125q0.15625 0.4375 0.15625 0.828125l0 0.078125l-4.546875 0q0.09375 -0.59375 0.296875 -1.03125q0.21875 -0.453125 0.53125 -0.765625q0.3125 -0.3125 0.703125 -0.46875q0.390625 -0.15625 0.828125 -0.15625zm9.6640625 6.40625q-0.6875 0 -1.140625 -0.265625q-0.453125 -0.28125 -0.734375 -0.71875q-0.28125 -0.421875 -0.40625 -0.96875q-0.109375 -0.546875 -0.109375 -1.09375l0 -0.328125q0 -0.546875 0.109375 -1.078125q0.125 -0.546875 0.40625 -0.984375q0.28125 -0.4375 0.734375 -0.703125q0.46875 -0.265625 1.140625 -0.265625q0.4375 0 0.8125 0.15625q0.375 0.140625 0.65625 0.390625q0.265625 0.265625 0.421875 0.609375q0.171875 0.328125 0.171875 0.71875l1.375 0q0 -0.640625 -0.265625 -1.203125q-0.25 -0.5625 -0.703125 -0.984375q-0.46875 -0.40625 -1.09375 -0.640625q-0.625 -0.234375 -1.375 -0.234375q-0.96875 0 -1.6875 0.34375q-0.71875 0.34375 -1.1875 0.921875q-0.484375 0.578125 -0.734375 1.34375q-0.234375 0.765625 -0.234375 1.609375l0 0.328125q0 0.84375 0.234375 1.609375q0.25 0.75 0.734375 1.328125q0.46875 0.59375 1.1875 0.9375q0.71875 0.34375 1.6875 0.34375q0.671875 0 1.28125 -0.234375q0.625 -0.234375 1.09375 -0.625q0.484375 -0.375 0.765625 -0.890625q0.28125 -0.515625 0.296875 -1.078125l-1.375 0q0 0.359375 -0.1875 0.65625q-0.171875 0.296875 -0.453125 0.515625q-0.296875 0.234375 -0.671875 0.359375q-0.359375 0.125 -0.75 0.125zm19.203125 0q-0.6875 0 -1.140625 -0.265625q-0.453125 -0.28125 -0.734375 -0.71875q-0.28125 -0.421875 -0.40625 -0.96875q-0.109375 -0.546875 -0.109375 -1.09375l0 -0.328125q0 -0.546875 0.109375 -1.078125q0.125 -0.546875 0.40625 -0.984375q0.28125 -0.4375 0.734375 -0.703125q0.46875 -0.265625 1.140625 -0.265625q0.4375 0 0.8125 0.15625q0.375 0.140625 0.65625 0.390625q0.265625 0.265625 0.421875 0.609375q0.171875 0.328125 0.171875 0.71875l1.375 0q0 -0.640625 -0.265625 -1.203125q-0.25 -0.5625 -0.703125 -0.984375q-0.46875 -0.40625 -1.09375 -0.640625q-0.625 -0.234375 -1.375 -0.234375q-0.96875 0 -1.6875 0.34375q-0.71875 0.34375 -1.1875 0.921875q-0.484375 0.578125 -0.734375 1.34375q-0.234375 0.765625 -0.234375 1.609375l0 0.328125q0 0.84375 0.234375 1.609375q0.25 0.75 0.734375 1.328125q0.46875 0.59375 1.1875 0.9375q0.71875 0.34375 1.6875 0.34375q0.671875 0 1.28125 -0.234375q0.625 -0.234375 1.09375 -0.625q0.484375 -0.375 0.765625 -0.890625q0.28125 -0.515625 0.296875 -1.078125l-1.375 0q0 0.359375 -0.1875 0.65625q-0.171875 0.296875 -0.453125 0.515625q-0.296875 0.234375 -0.671875 0.359375q-0.359375 0.125 -0.75 0.125zm5.5859375 -3.296875l0 0.171875q0 0.921875 0.265625 1.703125q0.265625 0.78125 0.765625 1.359375q0.5 0.578125 1.203125 0.90625q0.71875 0.328125 1.625 0.328125q0.890625 0 1.59375 -0.328125q0.71875 -0.328125 1.21875 -0.90625q0.484375 -0.578125 0.75 -1.359375q0.265625 -0.78125 0.265625 -1.703125l0 -0.171875q0 -0.90625 -0.265625 -1.6875q-0.265625 -0.796875 -0.75 -1.375q-0.5 -0.578125 -1.21875 -0.90625q-0.71875 -0.328125 -1.609375 -0.328125q-0.890625 0 -1.609375 0.328125q-0.703125 0.328125 -1.203125 0.90625q-0.5 0.578125 -0.765625 1.375q-0.265625 0.78125 -0.265625 1.6875zm1.453125 0.171875l0 -0.171875q0 -0.609375 0.140625 -1.171875q0.15625 -0.578125 0.453125 -1.0q0.296875 -0.4375 0.734375 -0.6875q0.453125 -0.25 1.0625 -0.25q0.59375 0 1.046875 0.25q0.453125 0.25 0.75 0.6875q0.296875 0.421875 0.453125 1.0q0.15625 0.5625 0.15625 1.171875l0 0.171875q0 0.625 -0.15625 1.203125q-0.140625 0.5625 -0.4375 0.984375q-0.3125 0.4375 -0.765625 0.6875q-0.4375 0.25 -1.03125 0.25q-0.609375 0 -1.0625 -0.25q-0.453125 -0.25 -0.75 -0.6875q-0.296875 -0.421875 -0.453125 -0.984375q-0.140625 -0.578125 -0.140625 -1.203125zm11.4453125 4.140625l1.09375 0l3.453125 -8.453125l-1.484375 0l-2.359375 6.375l-0.140625 0.515625l-0.140625 -0.515625l-2.421875 -6.375l-1.484375 0l3.484375 8.453125zm10.4453125 0.15625q1.234375 0 2.078125 -0.5q0.84375 -0.5 1.265625 -1.140625l-0.890625 -0.6875q-0.390625 0.515625 -1.0 0.828125q-0.59375 0.3125 -1.375 0.3125q-0.578125 0 -1.0625 -0.21875q-0.484375 -0.21875 -0.828125 -0.59375q-0.34375 -0.359375 -0.53125 -0.828125q-0.1875 -0.46875 -0.25 -1.09375l0 -0.046875l6.046875 0l0 -0.65625q0 -0.875 -0.234375 -1.625q-0.21875 -0.765625 -0.671875 -1.328125q-0.453125 -0.5625 -1.140625 -0.875q-0.671875 -0.3125 -1.59375 -0.3125q-0.71875 0 -1.421875 0.296875q-0.6875 0.296875 -1.21875 0.84375q-0.546875 0.5625 -0.875 1.375q-0.328125 0.8125 -0.328125 1.828125l0 0.328125q0 0.890625 0.296875 1.640625q0.296875 0.75 0.828125 1.296875q0.53125 0.546875 1.265625 0.859375q0.75 0.296875 1.640625 0.296875zm-0.1875 -7.578125q0.5625 0 0.953125 0.203125q0.40625 0.203125 0.671875 0.53125q0.265625 0.328125 0.40625 0.78125q0.15625 0.4375 0.15625 0.828125l0 0.078125l-4.546875 0q0.09375 -0.59375 0.296875 -1.03125q0.21875 -0.453125 0.53125 -0.765625q0.3125 -0.3125 0.703125 -0.46875q0.390625 -0.15625 0.828125 -0.15625zm11.6015625 -1.1875q-0.921875 0 -1.65625 0.40625q-0.71875 0.390625 -1.234375 1.09375l0 -0.21875l-0.0625 -1.125l-1.375 0l0 8.453125l1.453125 0l0 -5.421875q0.140625 -0.390625 0.34375 -0.703125q0.21875 -0.328125 0.515625 -0.546875q0.3125 -0.25 0.734375 -0.375q0.4375 -0.125 0.96875 -0.125q0.421875 0 0.796875 0.046875q0.375 0.03125 0.796875 0.125l0.203125 -1.40625q-0.21875 -0.09375 -0.65625 -0.140625q-0.4375 -0.0625 -0.828125 -0.0625z" fill-rule="nonzero"/><path fill="#76a5af" d="m228.0417 74.94663l503.87402 0l0 87.874016l-503.87402 0z" fill-rule="evenodd"/><path fill="#ffffff" d="m370.18823 123.02614q-0.625 0 -1.046875 -0.234375q-0.421875 -0.25 -0.671875 -0.65625q-0.25 -0.390625 -0.359375 -0.890625q-0.109375 -0.5 -0.109375 -1.0l0 -0.296875q0 -0.5 0.109375 -1.0q0.109375 -0.5 0.359375 -0.890625q0.265625 -0.40625 0.671875 -0.640625q0.421875 -0.25 1.046875 -0.25q0.390625 0 0.734375 0.140625q0.359375 0.125 0.609375 0.359375q0.25 0.25 0.390625 0.5625q0.15625 0.296875 0.15625 0.65625l1.25 0q0 -0.59375 -0.234375 -1.109375q-0.234375 -0.515625 -0.640625 -0.890625q-0.421875 -0.375 -1.0 -0.59375q-0.578125 -0.21875 -1.265625 -0.21875q-0.875 0 -1.546875 0.328125q-0.65625 0.3125 -1.09375 0.828125q-0.4375 0.546875 -0.671875 1.25q-0.21875 0.703125 -0.21875 1.46875l0 0.296875q0 0.765625 0.21875 1.46875q0.234375 0.703125 0.671875 1.234375q0.4375 0.53125 1.09375 0.84375q0.671875 0.3125 1.546875 0.3125q0.609375 0 1.171875 -0.203125q0.578125 -0.21875 1.015625 -0.578125q0.421875 -0.34375 0.6875 -0.8125q0.265625 -0.46875 0.265625 -0.984375l-1.25 0q0 0.3125 -0.171875 0.59375q-0.15625 0.28125 -0.421875 0.484375q-0.265625 0.203125 -0.609375 0.3125q-0.328125 0.109375 -0.6875 0.109375zm5.1233215 -3.0l0 0.15625q0 0.828125 0.234375 1.546875q0.25 0.71875 0.703125 1.25q0.453125 0.53125 1.109375 0.828125q0.65625 0.296875 1.484375 0.296875q0.8125 0 1.453125 -0.296875q0.65625 -0.296875 1.125 -0.828125q0.4375 -0.53125 0.6875 -1.25q0.25 -0.71875 0.25 -1.546875l0 -0.15625q0 -0.84375 -0.25 -1.5625q-0.25 -0.71875 -0.6875 -1.25q-0.46875 -0.53125 -1.125 -0.828125q-0.65625 -0.3125 -1.46875 -0.3125q-0.8125 0 -1.46875 0.3125q-0.65625 0.296875 -1.109375 0.828125q-0.453125 0.53125 -0.703125 1.25q-0.234375 0.71875 -0.234375 1.5625zm1.328125 0.15625l0 -0.15625q0 -0.578125 0.125 -1.09375q0.140625 -0.515625 0.421875 -0.90625q0.265625 -0.390625 0.671875 -0.625q0.40625 -0.234375 0.96875 -0.234375q0.546875 0 0.953125 0.234375q0.421875 0.234375 0.703125 0.625q0.265625 0.390625 0.40625 0.90625q0.140625 0.515625 0.140625 1.09375l0 0.15625q0 0.5625 -0.140625 1.09375q-0.140625 0.515625 -0.40625 0.90625q-0.28125 0.390625 -0.703125 0.625q-0.40625 0.21875 -0.9375 0.21875q-0.5625 0 -0.984375 -0.21875q-0.40625 -0.234375 -0.671875 -0.625q-0.28125 -0.390625 -0.421875 -0.90625q-0.125 -0.53125 -0.125 -1.09375zm8.451416 -3.96875l-1.1875 0l0 7.75l1.25 0l0 -6.15625q0.046875 -0.125 0.109375 -0.21875q0.078125 -0.09375 0.171875 -0.1875q0.109375 -0.09375 0.28125 -0.140625q0.1875 -0.0625 0.421875 -0.0625q0.21875 0 0.375 0.0625q0.15625 0.046875 0.265625 0.15625q0.125 0.125 0.171875 0.3125q0.046875 0.1875 0.046875 0.4375l0 5.796875l1.265625 0l0 -5.796875q0 -0.046875 0 -0.078125q0 -0.03125 0 -0.0625q0.015625 -0.1875 0.078125 -0.328125q0.078125 -0.140625 0.1875 -0.265625q0.109375 -0.109375 0.28125 -0.171875q0.171875 -0.0625 0.40625 -0.0625q0.234375 0 0.390625 0.0625q0.171875 0.0625 0.28125 0.171875q0.109375 0.125 0.171875 0.3125q0.0625 0.171875 0.0625 0.421875l0 5.796875l1.25 0l0 -5.78125q0 -0.5625 -0.125 -0.96875q-0.125 -0.40625 -0.375 -0.671875q-0.21875 -0.234375 -0.546875 -0.34375q-0.3125 -0.125 -0.71875 -0.125q-0.296875 0.015625 -0.546875 0.09375q-0.234375 0.0625 -0.4375 0.1875q-0.15625 0.109375 -0.296875 0.25q-0.140625 0.140625 -0.234375 0.296875q-0.078125 -0.171875 -0.1875 -0.3125q-0.109375 -0.140625 -0.25 -0.25q-0.1875 -0.125 -0.4375 -0.1875q-0.234375 -0.078125 -0.546875 -0.078125q-0.546875 0.015625 -0.9375 0.25q-0.375 0.21875 -0.609375 0.625l-0.03125 -0.734375zm8.170197 10.734375l1.328125 0l0 -3.734375q0.140625 0.15625 0.296875 0.296875q0.171875 0.125 0.359375 0.234375q0.3125 0.171875 0.6875 0.265625q0.390625 0.09375 0.828125 0.09375q0.734375 0 1.296875 -0.296875q0.578125 -0.296875 0.953125 -0.828125q0.390625 -0.53125 0.59375 -1.25q0.203125 -0.71875 0.203125 -1.546875l0 -0.15625q0 -0.859375 -0.203125 -1.578125q-0.203125 -0.734375 -0.59375 -1.265625q-0.375 -0.515625 -0.953125 -0.8125q-0.578125 -0.296875 -1.3125 -0.296875q-0.421875 0 -0.796875 0.09375q-0.359375 0.09375 -0.671875 0.265625q-0.203125 0.109375 -0.390625 0.28125q-0.1875 0.15625 -0.34375 0.34375l-0.0625 -0.84375l-1.21875 0l0 10.734375zm5.21875 -6.921875l0 0.15625q0 0.5625 -0.125 1.078125q-0.125 0.515625 -0.375 0.90625q-0.265625 0.390625 -0.671875 0.625q-0.390625 0.234375 -0.9375 0.234375q-0.34375 0 -0.640625 -0.078125q-0.28125 -0.09375 -0.5 -0.25q-0.203125 -0.125 -0.359375 -0.3125q-0.15625 -0.1875 -0.28125 -0.390625l0 -3.734375q0.140625 -0.25 0.3125 -0.4375q0.1875 -0.203125 0.40625 -0.34375q0.21875 -0.140625 0.46875 -0.203125q0.265625 -0.078125 0.578125 -0.078125q0.546875 0 0.953125 0.234375q0.40625 0.21875 0.671875 0.609375q0.25 0.390625 0.375 0.90625q0.125 0.515625 0.125 1.078125zm3.795166 -3.8125l0 1.15625l2.640625 0l0 5.453125l-2.640625 0l0 1.140625l6.484375 0l0 -1.140625l-2.53125 0l0 -6.609375l-3.953125 0zm2.46875 -2.03125q0 0.328125 0.1875 0.546875q0.203125 0.203125 0.59375 0.203125q0.40625 0 0.59375 -0.203125q0.203125 -0.21875 0.203125 -0.546875q0 -0.171875 -0.0625 -0.3125q-0.046875 -0.15625 -0.15625 -0.265625q-0.09375 -0.09375 -0.25 -0.140625q-0.140625 -0.0625 -0.328125 -0.0625q-0.1875 0 -0.328125 0.0625q-0.140625 0.046875 -0.234375 0.140625q-0.125 0.109375 -0.171875 0.265625q-0.046875 0.140625 -0.046875 0.3125zm6.3264465 -1.21875l0 1.15625l2.640625 0l0 8.703125l-2.640625 0l0 1.140625l6.484375 0l0 -1.140625l-2.53125 0l0 -9.859375l-3.953125 0zm12.013916 11.140625q1.125 0 1.890625 -0.453125q0.765625 -0.453125 1.15625 -1.046875l-0.8125 -0.625q-0.359375 0.46875 -0.90625 0.765625q-0.546875 0.28125 -1.265625 0.28125q-0.53125 0 -0.984375 -0.203125q-0.4375 -0.203125 -0.75 -0.546875q-0.3125 -0.328125 -0.484375 -0.75q-0.171875 -0.4375 -0.21875 -1.0l0 -0.0625l5.53125 0l0 -0.59375q0 -0.796875 -0.21875 -1.484375q-0.203125 -0.703125 -0.609375 -1.21875q-0.421875 -0.515625 -1.046875 -0.796875q-0.625 -0.296875 -1.453125 -0.296875q-0.671875 0 -1.3125 0.28125q-0.625 0.265625 -1.125 0.78125q-0.5 0.515625 -0.796875 1.25q-0.296875 0.734375 -0.296875 1.671875l0 0.3125q0 0.796875 0.265625 1.484375q0.28125 0.6875 0.765625 1.1875q0.484375 0.5 1.15625 0.78125q0.6875 0.28125 1.515625 0.28125zm-0.171875 -6.9375q0.5 0 0.859375 0.1875q0.375 0.1875 0.625 0.484375q0.234375 0.296875 0.375 0.71875q0.140625 0.40625 0.140625 0.765625l0 0.0625l-4.171875 0q0.078125 -0.53125 0.28125 -0.9375q0.203125 -0.421875 0.484375 -0.703125q0.28125 -0.28125 0.640625 -0.421875q0.359375 -0.15625 0.765625 -0.15625zm17.762238 6.9375q1.125 0 1.890625 -0.453125q0.765625 -0.453125 1.15625 -1.046875l-0.8125 -0.625q-0.359375 0.46875 -0.90625 0.765625q-0.546875 0.28125 -1.265625 0.28125q-0.53125 0 -0.984375 -0.203125q-0.4375 -0.203125 -0.75 -0.546875q-0.3125 -0.328125 -0.484375 -0.75q-0.171875 -0.4375 -0.21875 -1.0l0 -0.0625l5.53125 0l0 -0.59375q0 -0.796875 -0.21875 -1.484375q-0.203125 -0.703125 -0.609375 -1.21875q-0.421875 -0.515625 -1.046875 -0.796875q-0.625 -0.296875 -1.453125 -0.296875q-0.671875 0 -1.3125 0.28125q-0.625 0.265625 -1.125 0.78125q-0.5 0.515625 -0.796875 1.25q-0.296875 0.734375 -0.296875 1.671875l0 0.3125q0 0.796875 0.265625 1.484375q0.28125 0.6875 0.765625 1.1875q0.484375 0.5 1.15625 0.78125q0.6875 0.28125 1.515625 0.28125zm-0.171875 -6.9375q0.5 0 0.859375 0.1875q0.375 0.1875 0.625 0.484375q0.234375 0.296875 0.375 0.71875q0.140625 0.40625 0.140625 0.765625l0 0.0625l-4.171875 0q0.078125 -0.53125 0.28125 -0.9375q0.203125 -0.421875 0.484375 -0.703125q0.28125 -0.28125 0.640625 -0.421875q0.359375 -0.15625 0.765625 -0.15625zm6.8576965 0.203125l0 -4.40625l-1.3125 0l0 11.0l1.3125 0l0 -5.625q0.15625 -0.234375 0.328125 -0.421875q0.1875 -0.1875 0.40625 -0.328125q0.265625 -0.1875 0.578125 -0.28125q0.328125 -0.109375 0.6875 -0.109375q0.4375 0 0.765625 0.125q0.34375 0.125 0.5625 0.375q0.21875 0.21875 0.3125 0.578125q0.109375 0.34375 0.109375 0.796875l0 4.890625l1.328125 0l0 -4.875q0 -0.78125 -0.1875 -1.34375q-0.1875 -0.578125 -0.546875 -0.9375q-0.34375 -0.375 -0.84375 -0.546875q-0.5 -0.1875 -1.109375 -0.1875q-0.453125 0.015625 -0.875 0.140625q-0.40625 0.125 -0.75 0.375q-0.21875 0.15625 -0.40625 0.359375q-0.1875 0.1875 -0.359375 0.421875zm7.232666 2.65625l0 0.15625q0 0.828125 0.21875 1.546875q0.21875 0.71875 0.625 1.25q0.390625 0.53125 0.953125 0.828125q0.578125 0.296875 1.28125 0.296875q0.71875 0 1.25 -0.234375q0.546875 -0.25 0.921875 -0.71875l0.0625 0.8125l1.21875 0l0 -11.0l-1.328125 0l0 4.015625q-0.375 -0.4375 -0.90625 -0.671875q-0.515625 -0.234375 -1.203125 -0.234375q-0.703125 0 -1.28125 0.296875q-0.578125 0.296875 -0.96875 0.8125q-0.40625 0.53125 -0.625 1.265625q-0.21875 0.71875 -0.21875 1.578125zm1.3125 0.15625l0 -0.15625q0 -0.5625 0.125 -1.078125q0.125 -0.515625 0.375 -0.90625q0.25 -0.390625 0.640625 -0.609375q0.40625 -0.234375 0.96875 -0.234375q0.65625 0 1.09375 0.3125q0.4375 0.296875 0.6875 0.765625l0 3.59375q-0.25 0.515625 -0.6875 0.8125q-0.4375 0.296875 -1.109375 0.296875q-0.546875 0 -0.953125 -0.21875q-0.390625 -0.234375 -0.640625 -0.609375q-0.25 -0.390625 -0.375 -0.890625q-0.125 -0.515625 -0.125 -1.078125zm11.154572 3.921875q1.125 0 1.890625 -0.453125q0.765625 -0.453125 1.15625 -1.046875l-0.8125 -0.625q-0.359375 0.46875 -0.90625 0.765625q-0.546875 0.28125 -1.265625 0.28125q-0.53125 0 -0.984375 -0.203125q-0.4375 -0.203125 -0.75 -0.546875q-0.3125 -0.328125 -0.484375 -0.75q-0.171875 -0.4375 -0.21875 -1.0l0 -0.0625l5.53125 0l0 -0.59375q0 -0.796875 -0.21875 -1.484375q-0.203125 -0.703125 -0.609375 -1.21875q-0.421875 -0.515625 -1.046875 -0.796875q-0.625 -0.296875 -1.453125 -0.296875q-0.671875 0 -1.3125 0.28125q-0.625 0.265625 -1.125 0.78125q-0.5 0.515625 -0.796875 1.25q-0.296875 0.734375 -0.296875 1.671875l0 0.3125q0 0.796875 0.265625 1.484375q0.28125 0.6875 0.765625 1.1875q0.484375 0.5 1.15625 0.78125q0.6875 0.28125 1.515625 0.28125zm-0.171875 -6.9375q0.5 0 0.859375 0.1875q0.375 0.1875 0.625 0.484375q0.234375 0.296875 0.375 0.71875q0.140625 0.40625 0.140625 0.765625l0 0.0625l-4.171875 0q0.078125 -0.53125 0.28125 -0.9375q0.203125 -0.421875 0.484375 -0.703125q0.28125 -0.28125 0.640625 -0.421875q0.359375 -0.15625 0.765625 -0.15625zm5.545166 6.796875l1.3125 0l0 -5.546875q0.140625 -0.25 0.3125 -0.453125q0.1875 -0.21875 0.40625 -0.375q0.265625 -0.1875 0.578125 -0.28125q0.3125 -0.109375 0.6875 -0.109375q0.421875 0 0.75 0.109375q0.328125 0.09375 0.546875 0.3125q0.21875 0.21875 0.328125 0.578125q0.125 0.359375 0.125 0.875l0 4.890625l1.328125 0l0 -4.921875q0 -0.765625 -0.1875 -1.328125q-0.1875 -0.5625 -0.546875 -0.921875q-0.34375 -0.375 -0.84375 -0.546875q-0.5 -0.171875 -1.109375 -0.171875q-0.453125 0.015625 -0.859375 0.140625q-0.40625 0.125 -0.75 0.34375q-0.21875 0.15625 -0.421875 0.359375q-0.203125 0.203125 -0.375 0.453125l-0.09375 -1.15625l-1.1875 0l0 7.75zm11.092072 -0.859375q0 0.421875 0.265625 0.71875q0.265625 0.28125 0.78125 0.28125q0.5 0 0.765625 -0.28125q0.28125 -0.296875 0.28125 -0.71875q0 -0.421875 -0.265625 -0.71875q-0.265625 -0.296875 -0.78125 -0.296875q-0.53125 0 -0.796875 0.296875q-0.25 0.296875 -0.25 0.71875zm6.498291 0.859375l1.3125 0l0 -5.546875q0.140625 -0.25 0.3125 -0.453125q0.1875 -0.21875 0.40625 -0.375q0.265625 -0.1875 0.578125 -0.28125q0.3125 -0.109375 0.6875 -0.109375q0.421875 0 0.75 0.109375q0.328125 0.09375 0.546875 0.3125q0.21875 0.21875 0.328125 0.578125q0.125 0.359375 0.125 0.875l0 4.890625l1.328125 0l0 -4.921875q0 -0.765625 -0.1875 -1.328125q-0.1875 -0.5625 -0.546875 -0.921875q-0.34375 -0.375 -0.84375 -0.546875q-0.5 -0.171875 -1.109375 -0.171875q-0.453125 0.015625 -0.859375 0.140625q-0.40625 0.125 -0.75 0.34375q-0.21875 0.15625 -0.421875 0.359375q-0.203125 0.203125 -0.375 0.453125l-0.09375 -1.15625l-1.1875 0l0 7.75zm12.217072 0.140625q1.125 0 1.890625 -0.453125q0.765625 -0.453125 1.15625 -1.046875l-0.8125 -0.625q-0.359375 0.46875 -0.90625 0.765625q-0.546875 0.28125 -1.265625 0.28125q-0.53125 0 -0.984375 -0.203125q-0.4375 -0.203125 -0.75 -0.546875q-0.3125 -0.328125 -0.484375 -0.75q-0.171875 -0.4375 -0.21875 -1.0l0 -0.0625l5.53125 0l0 -0.59375q0 -0.796875 -0.21875 -1.484375q-0.203125 -0.703125 -0.609375 -1.21875q-0.421875 -0.515625 -1.046875 -0.796875q-0.625 -0.296875 -1.453125 -0.296875q-0.671875 0 -1.3125 0.28125q-0.625 0.265625 -1.125 0.78125q-0.5 0.515625 -0.796875 1.25q-0.296875 0.734375 -0.296875 1.671875l0 0.3125q0 0.796875 0.265625 1.484375q0.28125 0.6875 0.765625 1.1875q0.484375 0.5 1.15625 0.78125q0.6875 0.28125 1.515625 0.28125zm-0.171875 -6.9375q0.5 0 0.859375 0.1875q0.375 0.1875 0.625 0.484375q0.234375 0.296875 0.375 0.71875q0.140625 0.40625 0.140625 0.765625l0 0.0625l-4.171875 0q0.078125 -0.53125 0.28125 -0.9375q0.203125 -0.421875 0.484375 -0.703125q0.28125 -0.28125 0.640625 -0.421875q0.359375 -0.15625 0.765625 -0.15625zm8.670197 -2.828125l-1.328125 0l0 1.875l-2.03125 0l0 1.03125l2.03125 0l0 4.203125q0 0.71875 0.1875 1.234375q0.1875 0.5 0.515625 0.8125q0.34375 0.3125 0.78125 0.46875q0.453125 0.140625 0.96875 0.140625q0.29684448 0 0.6093445 -0.03125q0.3125 -0.03125 0.59375 -0.078125q0.28125 -0.046875 0.515625 -0.125q0.234375 -0.078125 0.40625 -0.171875l-0.1875 -0.9375q-0.125 0.015625 -0.3125 0.0625q-0.1875 0.03125 -0.40625 0.078125q-0.21875 0.03125 -0.453125 0.0625q-0.21875 0.015625 -0.4375 0.015625q-0.29684448 0 -0.5624695 -0.0625q-0.25 -0.078125 -0.453125 -0.25q-0.203125 -0.171875 -0.328125 -0.46875q-0.109375 -0.296875 -0.109375 -0.75l0 -4.203125l2.9530945 0l0 -1.03125l-2.9530945 0l0 -1.875zm7.4045105 10.515625l4.34375 -11.3125l-1.171875 0l-4.359375 11.3125l1.1875 0zm9.029541 -0.890625l1.328125 0l0 -6.71875l2.984375 0l0 -1.03125l-2.984375 0l0 -0.53125q0 -0.5 0.125 -0.859375q0.125 -0.359375 0.375 -0.59375q0.234375 -0.21875 0.578125 -0.328125q0.34375 -0.109375 0.796875 -0.109375q0.4375 0 0.828125 0.078125q0.390625 0.0625 0.6875 0.171875l0.15625 -1.09375q-0.1875 -0.0625 -0.375 -0.09375q-0.171875 -0.046875 -0.34375 -0.078125q-0.28125 -0.046875 -0.5625 -0.078125q-0.265625 -0.03125 -0.5625 -0.03125q-0.6875 0 -1.25 0.203125q-0.546875 0.1875 -0.9375 0.5625q-0.40625 0.375 -0.625 0.9375q-0.21875 0.5625 -0.21875 1.3125l0 0.53125l-2.125 0l0 1.03125l2.125 0l0 6.71875zm7.029602 -7.75l0 1.15625l2.640625 0l0 5.453125l-2.640625 0l0 1.140625l6.484375 0l0 -1.140625l-2.53125 0l0 -6.609375l-3.953125 0zm2.46875 -2.03125q0 0.328125 0.1875 0.546875q0.203125 0.203125 0.59375 0.203125q0.40625 0 0.59375 -0.203125q0.203125 -0.21875 0.203125 -0.546875q0 -0.171875 -0.0625 -0.3125q-0.046875 -0.15625 -0.15625 -0.265625q-0.09375 -0.09375 -0.25 -0.140625q-0.140625 -0.0625 -0.328125 -0.0625q-0.1875 0 -0.328125 0.0625q-0.140625 0.046875 -0.234375 0.140625q-0.125 0.109375 -0.171875 0.265625q-0.046875 0.140625 -0.046875 0.3125zm7.701416 8.703125l4.671875 -5.734375l0 -0.9375l-6.296875 0l0 1.109375l4.5625 0l-4.625 5.671875l0 0.96875l6.625 0l0 -1.078125l-4.9375 0zm8.795166 0l4.671875 -5.734375l0 -0.9375l-6.296875 0l0 1.109375l4.5625 0l-4.625 5.671875l0 0.96875l6.625 0l0 -1.078125l-4.9375 0zm13.779541 -2.703125l0 -0.15625q0 -0.609375 -0.109375 -1.15625q-0.09375 -0.546875 -0.296875 -1.0q-0.171875 -0.390625 -0.421875 -0.71875q-0.25 -0.328125 -0.546875 -0.5625q-0.34375 -0.234375 -0.765625 -0.375q-0.421875 -0.140625 -0.921875 -0.140625q-0.40625 0 -0.75 0.078125q-0.34375 0.078125 -0.625 0.234375q-0.234375 0.125 -0.4375 0.296875q-0.203125 0.15625 -0.359375 0.375l0 -4.09375l-1.328125 0l0 11.0l1.21875 0l0.0625 -0.875q0.125 0.15625 0.265625 0.296875q0.15625 0.140625 0.3125 0.25q0.328125 0.234375 0.734375 0.34375q0.421875 0.125 0.921875 0.125q0.4375 0 0.8125 -0.109375q0.375 -0.109375 0.6875 -0.296875q0.4375 -0.28125 0.75 -0.703125q0.3125 -0.421875 0.5 -0.96875q0.140625 -0.40625 0.21875 -0.875q0.078125 -0.46875 0.078125 -0.96875zm-1.328125 -0.15625l0 0.15625q0 0.34375 -0.046875 0.671875q-0.046875 0.328125 -0.125 0.609375q-0.125 0.375 -0.328125 0.6875q-0.1875 0.3125 -0.46875 0.515625q-0.21875 0.15625 -0.484375 0.234375q-0.265625 0.078125 -0.59375 0.078125q-0.34375 0 -0.640625 -0.078125q-0.28125 -0.09375 -0.515625 -0.265625q-0.21875 -0.15625 -0.40625 -0.375q-0.171875 -0.21875 -0.296875 -0.484375l0 -3.375q0.125 -0.265625 0.296875 -0.484375q0.171875 -0.21875 0.40625 -0.375q0.21875 -0.15625 0.5 -0.25q0.296875 -0.09375 0.640625 -0.09375q0.3125 0 0.5625 0.078125q0.265625 0.0625 0.46875 0.203125q0.296875 0.171875 0.5 0.484375q0.21875 0.3125 0.34375 0.703125q0.09375 0.296875 0.140625 0.65625q0.046875 0.34375 0.046875 0.703125zm8.654602 3.9375l1.203125 0l0 -7.75l-1.328125 0l0 5.5625q-0.109375 0.25 -0.265625 0.46875q-0.15625 0.203125 -0.375 0.359375q-0.265625 0.171875 -0.625 0.28125q-0.34375 0.109375 -0.78125 0.109375q-0.375 0 -0.671875 -0.09375q-0.28125 -0.109375 -0.484375 -0.359375q-0.203125 -0.25 -0.3125 -0.65625q-0.09375 -0.421875 -0.09375 -1.046875l0 -4.625l-1.328125 0l0 4.609375q0 0.859375 0.1875 1.484375q0.203125 0.625 0.546875 1.015625q0.359375 0.40625 0.84375 0.59375q0.5 0.1875 1.109375 0.1875q0.75 0 1.328125 -0.3125q0.578125 -0.328125 0.96875 -0.890625l0.078125 1.0625zm5.279541 -1.078125l4.671875 -5.734375l0 -0.9375l-6.296875 0l0 1.109375l4.5625 0l-4.625 5.671875l0 0.96875l6.625 0l0 -1.078125l-4.9375 0zm8.795166 0l4.671875 -5.734375l0 -0.9375l-6.296875 0l0 1.109375l4.5625 0l-4.625 5.671875l0 0.96875l6.625 0l0 -1.078125l-4.9375 0z" fill-rule="nonzero"/><path fill="#000000" fill-opacity="0.0" d="m479.98822 484.21072l0 -45.606323" fill-rule="evenodd"/><path stroke="#b7b7b7" stroke-width="3.0" stroke-linejoin="round" stroke-linecap="butt" d="m479.98822 466.21072l0 -27.606323" fill-rule="evenodd"/><path fill="#b7b7b7" stroke="#b7b7b7" stroke-width="3.0" stroke-linecap="butt" d="m475.03302 466.21072l4.9552 13.614288l4.9552 -13.614288z" fill-rule="evenodd"/><path fill="#000000" fill-opacity="0.0" d="m479.98987 255.84729l0 -45.5748" fill-rule="evenodd"/><path stroke="#b7b7b7" stroke-width="3.0" stroke-linejoin="round" stroke-linecap="butt" d="m479.98987 237.84729l0 -27.574799" fill-rule="evenodd"/><path fill="#b7b7b7" stroke="#b7b7b7" stroke-width="3.0" stroke-linecap="butt" d="m475.03467 237.8473l4.9552 13.614288l4.9552 -13.614288z" fill-rule="evenodd"/></g></svg>